<?xml version="1.0" encoding="utf-8"?>
<!-- Generator: Adobe Illustrator 22.1.0, SVG Export Plug-In . SVG Version: 6.00 Build 0)  -->
<svg version="1.1" id="Capa_1" xmlns="http://www.w3.org/2000/svg" xmlns:xlink="http://www.w3.org/1999/xlink" x="0px" y="0px"
	 viewBox="0 0 512 512" style="enable-background:new 0 0 512 512;" xml:space="preserve">
<style type="text/css">
	.st0{fill:#FFFFFF;}
</style>
<g>
	<path class="st0" d="M344.2,276.2l-43.6-19.5c-3.1-1.4-5.1-4.5-5.1-7.8v-12c14.6-11.7,24.1-29.8,24.1-50v-16.9
		c4.8-2.7,8-7.9,8-13.7v-1.6c0-35.3-28.5-64-63.6-64h-16c-35.1,0-63.6,28.7-63.6,64v14.9c0,5.1,2.2,9.7,6,12.7
		c0.6,0.5,1.3,0.9,2,1.3v3.3c0,20.2,9.4,38.3,24,50v12c0,3.4-2,6.5-5.1,7.8l-43.6,19.5c-14.3,6.4-23.5,20.6-23.5,36.4v99.9
		c0,4.2,3.4,7.5,7.5,7.5c4.1,0,7.5-3.4,7.5-7.5v-99.9c0-0.9,0.1-1.7,0.2-2.6l20.1,20.2c3.1,3.1,4.8,7.3,4.8,11.8v70.6
		c0,4.2,3.4,7.5,7.5,7.5c4.1,0,7.5-3.4,7.5-7.5v-70.6c0-8.5-3.3-16.4-9.2-22.4l-23.9-24.1c2.2-2.3,4.7-4.1,7.7-5.4l42.8-19.1
		l31.8,32v109.7c0,4.2,3.4,7.5,7.5,7.5c4.1,0,7.5-3.4,7.5-7.5V302.8l31.8-32l42.8,19.1c2.9,1.3,5.5,3.2,7.7,5.4l-23.9,24.1
		c-6,6-9.2,14-9.2,22.4v70.6c0,4.2,3.4,7.5,7.5,7.5c4.1,0,7.5-3.4,7.5-7.5v-70.6c0-4.4,1.7-8.6,4.8-11.8l20.1-20.2
		c0.1,0.9,0.2,1.7,0.2,2.6v99.9c0,4.2,3.4,7.5,7.5,7.5c4.1,0,7.5-3.4,7.5-7.5v-99.9C367.7,296.8,358.5,282.5,344.2,276.2z M256,289
		l-27.9-28c2.1-3.6,3.3-7.7,3.3-12.1v-3.1c7.6,3.2,15.9,5,24.6,5c8.7,0,17-1.8,24.6-5v3.1c0,4.3,1.2,8.5,3.3,12.1L256,289z
		 M256,235.7c-26.8,0-48.6-21.9-48.6-48.9v-3.4c4.7-1.9,9.2-4.8,13.6-8.9c3-2.8,3.2-7.6,0.4-10.7c-2.8-3.1-7.6-3.3-10.6-0.4
		c-3.8,3.5-7.5,5.7-11.1,6.7c-0.1,0-0.2,0-0.2,0c-0.1-0.1-0.1-0.3-0.1-0.7v-14.9c0-27,21.8-48.9,48.6-48.9h16
		c26.8,0,48.6,21.9,48.6,48.9v1.6c0,0.2-0.1,0.5-0.3,0.5c-44.9,8.9-67.4-7.9-75-15.5c-2.9-2.9-7.7-2.9-10.6,0
		c-2.9,2.9-2.9,7.7,0,10.7c23.3,23.4,57.3,23.8,78,21.3v13.6C304.6,213.7,282.8,235.7,256,235.7z M109.8,172.1
		c0.9-3,1.4-6.2,1.4-9.5c0-17.5-14.2-31.7-31.5-31.7c-17.4,0-31.5,14.2-31.5,31.7c0,3.3,0.5,6.4,1.4,9.5C34.2,182,24,199.4,24,219
		v16.1c0,19.1,9.5,35.9,24,46v16.6c0,3.3-1.8,6.2-4.7,7.7l-25.9,13C6.7,323.8,0,334.7,0,346.8v65.7c0,4.2,3.4,7.5,7.5,7.5
		c4.1,0,7.5-3.4,7.5-7.5v-62.4l12.2,12.3c3.1,3.1,4.8,7.3,4.8,11.8v38.3c0,4.2,3.4,7.5,7.5,7.5s7.5-3.4,7.5-7.5v-38.3
		c0-8.5-3.3-16.4-9.2-22.4l-17-17.1c-0.1-0.1-0.2-0.2-0.3-0.2c1.1-0.9,2.3-1.8,3.6-2.4l25.9-13c1.3-0.7,2.6-1.5,3.7-2.3L72.1,335
		v77.5c0,4.2,3.4,7.5,7.5,7.5c4.1,0,7.5-3.4,7.5-7.5V335l18.3-18.4c1.2,0.9,2.4,1.7,3.7,2.3l7.2,3.6c1.1,0.5,2.2,0.8,3.3,0.8
		c2.8,0,5.4-1.5,6.7-4.2c1.9-3.7,0.4-8.3-3.4-10.1l-7.2-3.6c-2.9-1.5-4.7-4.4-4.7-7.7v-16.6c14.5-10.1,24-26.9,24-46V219
		C135.2,199.4,125.1,182,109.8,172.1z M79.6,146c9.1,0,16.5,7.5,16.5,16.6c0,1-0.1,2-0.3,3c-5.2-1.6-10.6-2.5-16.3-2.5
		c-5.7,0-11.1,0.9-16.3,2.4c-0.2-1-0.3-2-0.3-3C63.1,153.4,70.5,146,79.6,146z M79.6,321.2l-17.3-17.4c0.5-1.9,0.8-4,0.8-6.1v-9.2
		c5.2,1.6,10.8,2.5,16.5,2.5c5.8,0,11.3-0.9,16.5-2.5v9.2c0,2.1,0.3,4.1,0.8,6.1L79.6,321.2z M79.6,276C57.3,276,39,257.7,39,235.1
		v-1.6c6-1.4,14.8-4.6,24.1-12.1c3.3,3.1,8,6.9,13.9,10.2c7,3.9,16.8,7.4,28.7,7.4c4.5,0,9.4-0.5,14.5-1.7
		C119,258.9,101.3,276,79.6,276z M120.2,221.8c-31.2,9.6-49.8-14.3-50.6-15.3c-1.3-1.7-3.3-2.8-5.5-3c-2.2-0.2-4.3,0.6-5.8,2.2
		c-7.2,7.2-14.2,10.7-19.2,12.3c0.6-22,18.5-39.8,40.6-39.8c22.4,0,40.6,18.3,40.6,40.8V221.8z M494.6,302.3l-42-21.1
		c-2.9-1.5-4.7-4.4-4.7-7.7v-10.7c9.8-8.8,16-21.6,16-35.8v-8.6c0.2,0,0.3,0,0.5,0c4.1,0,7.5-3.4,7.5-7.5v-16.1
		c0-26.4-21.3-47.8-47.6-47.8h-16c-26.2,0-47.6,21.5-47.6,47.8V211c0,4.2,3.4,7.5,7.5,7.5c0.1,0,0.2,0,0.5,0v8.6
		c0,14.2,6.2,27,16,35.8v10.7c0,3.3-1.8,6.2-4.7,7.7c-3.7,1.9-5.2,6.4-3.4,10.1c1.3,2.6,4,4.2,6.7,4.2c1.1,0,2.3-0.3,3.3-0.8
		c1.3-0.7,2.6-1.5,3.7-2.3l18.3,18.4v101.7c0,4.2,3.4,7.5,7.5,7.5c4.1,0,7.5-3.4,7.5-7.5V310.8l18.3-18.4c1.2,0.9,2.4,1.7,3.7,2.3
		l40.6,20.4l-12.3,12.4c-6,6-9.2,14-9.2,22.4v62.5c0,4.2,3.4,7.5,7.5,7.5c4.1,0,7.5-3.4,7.5-7.5v-62.5c0-4.4,1.7-8.6,4.8-11.8
		l11.7-11.7c0.4,1.4,0.5,2.8,0.5,4.2v81.8c0,4.2,3.4,7.5,7.5,7.5c4.1,0,7.5-3.4,7.5-7.5v-81.8C512,318.6,505.3,307.7,494.6,302.3z
		 M375.7,201.9v-7h0c0-18.1,14.6-32.8,32.6-32.8h16c18,0,32.6,14.7,32.6,32.8v8.4c-32.6-1.8-52.3-14.5-52.5-14.7
		c-1.3-0.9-2.7-1.3-4.2-1.3c-1.9,0-3.9,0.8-5.3,2.2C387.8,196.7,380.8,200.2,375.7,201.9z M416.3,297L399,279.6
		c0.5-1.9,0.8-4,0.8-6.1v-1.6c5.2,1.9,10.7,3,16.5,3s11.4-1.1,16.5-3v1.6c0,2.1,0.3,4.1,0.8,6.1L416.3,297z M416.3,259.8
		c-18,0-32.6-14.7-32.6-32.8v-12.2c5.3-2.1,11.4-5.5,17.6-10.8c7.9,4.1,24.4,11.2,47.6,13.6v9.4
		C448.9,245.1,434.3,259.8,416.3,259.8z"/>
</g>
</svg>
