<?xml version="1.0" encoding="utf-8"?>
<!-- Generator: Adobe Illustrator 22.1.0, SVG Export Plug-In . SVG Version: 6.00 Build 0)  -->
<svg version="1.1" id="Capa_1" xmlns="http://www.w3.org/2000/svg" xmlns:xlink="http://www.w3.org/1999/xlink" x="0px" y="0px"
	 viewBox="0 0 512 512" style="enable-background:new 0 0 512 512;" xml:space="preserve">
<style type="text/css">
	.st0{fill:#FFFFFF;}
</style>
<g>
	<path class="st0" d="M269.7,216.1c-5.6,5.6-5.6,14.5,0,20c23.1,23,23.1,60.3,0,83.3L148.6,440c-23.1,23-60.5,23-83.6,0l-18.2-18.1
		c-23.1-23-23.1-60.3,0-83.3L167.9,218c5.6-5.6,5.6-14.5,0-20c-5.6-5.6-14.5-5.6-20.1,0L26.7,318.6C10.2,335,1,357,1,380.2
		c0,23.3,9.1,45.2,25.7,61.7l18.2,18.1c17.1,17,39.5,25.5,61.9,25.5c22.4,0,44.9-8.5,61.9-25.5l121.1-120.6
		c34.1-34,34.1-89.4,0-123.3C284.4,210.5,275.3,210.5,269.7,216.1z M483.8,57.6l-18.2-18.1c-34.1-34-89.7-34-123.8,0L220.7,160.1
		c-34.1,34-34.1,89.4,0,123.3c5.6,5.6,14.5,5.6,20.1,0c5.6-5.6,5.6-14.5,0-20c-23.1-23-23.1-60.3,0-83.3L361.9,59.5
		c23.1-23,60.5-23,83.6,0l18.2,18.1c23.1,23,23.1,60.3,0,83.3L342.6,281.6c-5.6,5.6-5.6,14.5,0,20c2.7,2.7,6.4,4.2,10,4.2
		c3.6,0,7.3-1.4,10-4.2L483.7,181c16.5-16.5,25.7-38.4,25.7-61.7C509.4,96,500.3,74.1,483.8,57.6z"/>
</g>
</svg>
