<?xml version="1.0" encoding="utf-8"?>
<!-- Generator: Adobe Illustrator 22.1.0, SVG Export Plug-In . SVG Version: 6.00 Build 0)  -->
<svg version="1.1" id="Capa_1" xmlns="http://www.w3.org/2000/svg" xmlns:xlink="http://www.w3.org/1999/xlink" x="0px" y="0px"
	 viewBox="0 0 512 512" style="enable-background:new 0 0 512 512;" xml:space="preserve">
<style type="text/css">
	.st0{fill:#FFFFFF;}
</style>
<path class="st0" d="M207.1,335.8c0.2-1.9,0.7-3.8,1.7-5.7L329.3,102c3.6-6.7,11.6-9.9,18.9-7.4c7.3,2.5,11.6,9.8,10.3,17.3l-47,253
	c-0.4,2-1.1,3.8-2.2,5.4c-0.5,2.2-1,4.3-1.8,6.5c-7.6,21.6-28.3,36.2-51.5,36.2c-6,0-12-1-17.7-2.9c-13.8-4.6-24.9-14.3-31.2-27.2
	c-6.4-12.9-7.3-27.4-2.6-41C205.2,339.8,206.1,337.8,207.1,335.8z M256,111.2c8.6,0,15.6,6.9,15.6,15.3c0,8.5-7,15.3-15.6,15.3
	c-124,0-224.8,99.4-224.8,221.5c0,8.4-7,15.3-15.6,15.3C7,378.6,0,371.8,0,363.3C0,224.3,114.8,111.2,256,111.2z M416.8,167.2
	c60.4,48.2,95.1,119.6,95.1,196.2c0,8.5-7,15.3-15.6,15.3c-8.6,0-15.6-6.9-15.6-15.3c0-67.2-30.5-130-83.6-172.3
	c-6.7-5.3-7.7-15-2.3-21.6C400.3,162.9,410.1,161.8,416.8,167.2z"/>
</svg>
