<?xml version="1.0" encoding="utf-8"?>
<!-- Generator: Adobe Illustrator 22.1.0, SVG Export Plug-In . SVG Version: 6.00 Build 0)  -->
<svg version="1.1" id="Capa_1" xmlns="http://www.w3.org/2000/svg" xmlns:xlink="http://www.w3.org/1999/xlink" x="0px" y="0px"
	 viewBox="0 0 512 512" style="enable-background:new 0 0 512 512;" xml:space="preserve">
<style type="text/css">
	.st0{fill:#FFFFFF;}
</style>
<g>
	<path class="st0" d="M453.2,133.9c-29.7,0-53.8,24.3-53.8,54.3c0,10.9,3.2,21.1,8.7,29.6L350,276.4c-8.5-5.6-18.5-8.8-29.4-8.8
		c-11.2,0-21.6,3.5-30.3,9.4l-58.8-59.3c5.5-8.5,8.7-18.7,8.7-29.6c0-29.9-24.2-54.3-53.8-54.3s-53.8,24.3-53.8,54.3
		c0,10.9,3.2,21.1,8.7,29.6l-58.2,58.6c-8.4-5.6-18.5-8.8-29.4-8.8C24.2,267.6,0,291.9,0,321.9c0,29.9,24.2,54.3,53.8,54.3
		c29.7,0,53.8-24.4,53.8-54.3c0-10.9-3.2-21.1-8.7-29.6l58.2-58.6c8.5,5.6,18.5,8.8,29.4,8.8c10.8,0,20.9-3.2,29.4-8.8l59.1,59.6
		c-5.2,8.3-8.1,18.1-8.1,28.7c0,29.9,24.2,54.3,53.8,54.3c29.7,0,53.8-24.3,53.8-54.3c0-10.9-3.2-21.1-8.7-29.6l58.2-58.6
		c8.5,5.6,18.5,8.8,29.4,8.8c29.7,0,53.8-24.3,53.8-54.3C507.1,158.2,482.9,133.9,453.2,133.9z M53.8,353.7
		c-17.4,0-31.6-14.3-31.6-31.8c0-17.6,14.2-31.8,31.6-31.8c17.4,0,31.6,14.3,31.6,31.8C85.4,339.4,71.3,353.7,53.8,353.7z
		 M186.5,220c-17.4,0-31.6-14.3-31.6-31.8c0-17.6,14.2-31.8,31.6-31.8c17.4,0,31.6,14.3,31.6,31.8C218,205.7,203.9,220,186.5,220z
		 M320.6,353.7c-17.4,0-31.6-14.3-31.6-31.8c0-17.6,14.2-31.8,31.6-31.8c17.4,0,31.6,14.3,31.6,31.8
		C352.2,339.4,338,353.7,320.6,353.7z M453.2,220c-17.4,0-31.6-14.3-31.6-31.8c0-17.6,14.2-31.8,31.6-31.8s31.6,14.3,31.6,31.8
		C484.8,205.7,470.6,220,453.2,220z M159.3,271.7l-22.6,22.8c-4.3,4.4-4.3,11.5,0,15.9c2.2,2.2,5,3.3,7.9,3.3c2.8,0,5.7-1.1,7.9-3.3
		l22.6-22.8c4.3-4.4,4.3-11.5,0-15.9C170.7,267.3,163.7,267.3,159.3,271.7z M339.9,242c2.8,0,5.7-1.1,7.9-3.3l22.6-22.8
		c4.3-4.4,4.3-11.5,0-15.9c-4.3-4.4-11.4-4.4-15.7,0L332,222.9c-4.3,4.4-4.3,11.5,0,15.9C334.2,240.9,337,242,339.9,242z"/>
</g>
</svg>
