<?xml version="1.0" encoding="utf-8"?>
<!-- Generator: Adobe Illustrator 22.1.0, SVG Export Plug-In . SVG Version: 6.00 Build 0)  -->
<svg version="1.1" id="Capa_1" xmlns="http://www.w3.org/2000/svg" xmlns:xlink="http://www.w3.org/1999/xlink" x="0px" y="0px"
	 viewBox="0 0 512 512" style="enable-background:new 0 0 512 512;" xml:space="preserve">
<style type="text/css">
	.st0{fill:#FFFFFF;}
</style>
<path class="st0" d="M449.1,495.1h-32.4c-37.8-32.2-93.5-51.2-154.2-52.8v-48.8l38.2-38.1c7,1.3,14.1,1.9,21.2,1.9
	c32.7,0,65.6-13.5,90-37.8c30.9-30.8,44.4-75,35.1-115.4c-0.7-3.1-3.1-5.5-6.2-6.2c-40.5-9.2-84.8,4.2-115.8,35
	c-29.8,29.6-43.3,71.7-36,110.8L262.5,370V217.4l24.9-24.9c4.8,0.8,9.7,1.2,14.6,1.2c24.4,0,48.8-10,67-28.2
	c23-22.9,33-55.9,26.1-85.9c-0.7-3.1-3.1-5.5-6.2-6.2c-30.2-6.9-63.2,3.1-86.2,26c-21.9,21.8-32,52.6-27,81.4L262.5,194v-16
	c0-25.5-9.9-49.6-27.9-67.8c4.9-28.8-5.2-59.6-27-81.3c-23-22.9-56-32.9-86.2-26c-3.1,0.7-5.5,3.1-6.2,6.2
	c-6.9,30.1,3.1,63,26.1,85.9c18.2,18.1,42.7,28.2,67,28.2c4.9,0,9.8-0.4,14.6-1.2c14.8,15,23,34.9,23,56v121.4L219.4,273
	c7.3-39.1-6.3-81.2-36-110.8c-30.9-30.8-75.3-44.2-115.8-35c-3.1,0.7-5.5,3.1-6.2,6.2c-9.3,40.3,4.2,84.5,35.1,115.4
	c24.4,24.4,57.3,37.8,90,37.8c7.1,0,14.2-0.6,21.2-1.9l38.2,38.1v119.5c-60.7,1.6-116.4,20.6-154.2,52.8H59.3
	c-4.6,0-8.3,3.7-8.3,8.3c0,4.6,3.7,8.3,8.3,8.3h389.8c4.6,0,8.3-3.7,8.3-8.3C457.4,498.8,453.7,495.1,449.1,495.1z M336.7,244.5
	c25.6-25.5,61.6-37.3,95.1-31.6c5.8,33.4-6.1,69.3-31.7,94.8c-22.9,22.8-54.2,34.7-84.6,32.8l77.5-77.3c3.2-3.2,3.2-8.5,0-11.7
	c-3.2-3.2-8.5-3.2-11.7,0l-77.5,77.3C301.9,298.6,313.8,267.4,336.7,244.5z M314.4,111.2c17.7-17.6,42.3-26,65.5-22.6
	c3.4,23.1-5,47.7-22.6,65.3c-14.9,14.8-34.7,23.1-54.5,23.3l47.8-47.6c3.2-3.2,3.2-8.5,0-11.7c-3.2-3.2-8.5-3.2-11.7,0L291,165.6
	C291.2,145.9,299.5,126.1,314.4,111.2z M130.3,18.1c23.2-3.4,47.9,5,65.5,22.6c14.9,14.8,23.2,34.6,23.4,54.3l-47.8-47.6
	c-3.2-3.2-8.5-3.2-11.7,0c-3.2,3.2-3.2,8.5,0,11.7l47.8,47.7c-19.8-0.2-39.7-8.5-54.6-23.3C135.3,65.8,126.9,41.2,130.3,18.1z
	 M108.2,237.1c-25.6-25.5-37.4-61.4-31.7-94.8c33.5-5.7,69.5,6.1,95.1,31.6c22.9,22.8,34.8,54,32.9,84.3L127,180.9
	c-3.2-3.2-8.5-3.2-11.7,0c-3.2,3.2-3.2,8.5,0,11.7l77.5,77.3C162.4,271.8,131.1,260,108.2,237.1z M254.2,458.7
	c50.6,0,99.2,13.4,134.8,36.4H119.4C155,472.1,203.6,458.7,254.2,458.7z"/>
</svg>
