<?xml version="1.0" encoding="utf-8"?>
<!-- Generator: Adobe Illustrator 22.1.0, SVG Export Plug-In . SVG Version: 6.00 Build 0)  -->
<svg version="1.1" id="Capa_1" xmlns="http://www.w3.org/2000/svg" xmlns:xlink="http://www.w3.org/1999/xlink" x="0px" y="0px"
	 viewBox="0 0 512 512" style="enable-background:new 0 0 512 512;" xml:space="preserve">
<style type="text/css">
	.st0{fill:#FFFFFF;}
</style>
<g>
	<path class="st0" d="M511.2,170.4c-7.5-84.1-65.7-145.1-138.6-145.1c-48.5,0-93,26.7-118,69.5c-24.8-43.4-67.4-69.5-115.2-69.5
		c-72.9,0-131.1,61-138.6,145.1c-0.6,3.7-3,23.3,4.4,55.1c10.6,46,35.1,87.8,70.9,120.9L254.5,512l181.4-165.5
		c35.8-33.1,60.3-74.9,70.9-120.9C514.2,193.7,511.7,174.2,511.2,170.4z M487.6,221c-9.7,42-32.2,80.3-64.9,110.6L254.6,484.9
		L89.3,331.6C56.5,301.2,34.1,263,24.4,221c-7-30.2-4.1-47.2-4.1-47.3l0.1-1c6.4-73.7,56.4-127.2,119-127.2
		c46.2,0,86.8,29,106.1,75.7l9.1,22l9.1-22c19-45.9,61.7-75.6,109-75.6c62.5,0,112.6,53.5,119.1,128.1
		C491.7,173.7,494.6,190.8,487.6,221z M157.5,86.5c-54.3,0-98.5,45.2-98.5,100.7c0,5.6,4.4,10.1,9.8,10.1s9.8-4.5,9.8-10.1
		c0-44.4,35.3-80.5,78.8-80.5c5.4,0,9.8-4.5,9.8-10.1C167.4,91,163,86.5,157.5,86.5z"/>
</g>
</svg>
