<?xml version="1.0" encoding="utf-8"?>
<!-- Generator: Adobe Illustrator 22.1.0, SVG Export Plug-In . SVG Version: 6.00 Build 0)  -->
<svg version="1.1" id="Capa_1" xmlns="http://www.w3.org/2000/svg" xmlns:xlink="http://www.w3.org/1999/xlink" x="0px" y="0px"
	 viewBox="0 0 512 512" style="enable-background:new 0 0 512 512;" xml:space="preserve">
<style type="text/css">
	.st0{fill:#FFFFFF;}
</style>
<g>
	<path class="st0" d="M254.4,0C118,0,7.1,110.3,7.1,245.8C7.1,308,30.4,367,72.7,412.5l-13.8,88.3c-0.6,3.6,1,7.2,3.9,9.3
		c1.7,1.2,3.7,1.8,5.7,1.8c1.5,0,3.1-0.4,4.5-1.1l79.7-41c32,14.4,66.2,21.7,101.6,21.7c136.3,0,247.2-110.3,247.2-245.8
		C501.6,110.3,390.7,0,254.4,0z M254.4,472.2c-34.2,0-67-7.3-97.7-21.8c-2.7-1.3-5.9-1.2-8.7,0.1L81.1,485l11.6-74.2
		c0.5-3-0.5-6-2.6-8.2c-40.9-42.4-63.5-98.1-63.5-156.8c0-124.9,102.2-226.4,227.8-226.4s227.8,101.6,227.8,226.4
		C482.1,370.6,380,472.2,254.4,472.2z M254.4,173.1c28.4,0,51.5-23,51.5-51.2c0-28.2-23.1-51.2-51.5-51.2c-28.4,0-51.5,23-51.5,51.2
		C202.8,150.2,226,173.1,254.4,173.1z M254.4,90.1c17.7,0,32.1,14.3,32.1,31.9c0,17.6-14.4,31.9-32.1,31.9s-32.1-14.3-32.1-31.9
		C222.3,104.3,236.7,90.1,254.4,90.1z M311.5,357.7h-11.1V199.1c0-5.3-4.4-9.7-9.7-9.7h-93.4c-5.4,0-9.7,4.3-9.7,9.7v32.1
		c0,5.3,4.4,9.7,9.7,9.7h11.1v116.8h-11.1c-5.4,0-9.7,4.3-9.7,9.7v32.1c0,5.3,4.4,9.7,9.7,9.7h114.2c5.4,0,9.7-4.3,9.7-9.7v-32.1
		C321.2,362.1,316.8,357.7,311.5,357.7z M301.7,389.9H207v-12.8h11.1c5.4,0,9.7-4.3,9.7-9.7V231.3c0-5.3-4.4-9.7-9.7-9.7H207v-12.8
		h73.9v158.6c0,5.3,4.4,9.7,9.7,9.7h11.1V389.9z"/>
</g>
</svg>
