<?xml version="1.0" encoding="utf-8"?>
<!-- Generator: Adobe Illustrator 22.1.0, SVG Export Plug-In . SVG Version: 6.00 Build 0)  -->
<svg version="1.1" id="Capa_1" xmlns="http://www.w3.org/2000/svg" xmlns:xlink="http://www.w3.org/1999/xlink" x="0px" y="0px"
	 viewBox="0 0 512 512" style="enable-background:new 0 0 512 512;" xml:space="preserve">
<style type="text/css">
	.st0{fill:#FFFFFF;}
</style>
<g>
	<path class="st0" d="M366.1,0H145.9C65.7,0,0,65.7,0,145.9v220.2C0,446.3,65.7,512,145.9,512h220.2c80.2,0,145.9-65.7,145.9-145.9
		V145.9C512,65.7,446.3,0,366.1,0z M494.9,366.1c0,70.8-58,128.9-128.9,128.9H145.9c-70.8,0-128.9-58-128.9-128.9V145.9
		c0-70.8,58-128.9,128.9-128.9h220.2c70.8,0,128.9,58,128.9,128.9V366.1z M366.1,51.2H145.9c-52.1,0-94.7,42.7-94.7,94.7v220.2
		c0,52.1,42.7,94.7,94.7,94.7h220.2c52.1,0,94.7-42.7,94.7-94.7V145.9C460.8,93.9,418.1,51.2,366.1,51.2z M443.7,366.1
		c0,42.7-35,77.7-77.7,77.7H145.9c-42.7,0-77.7-35-77.7-77.7V145.9c0-42.7,35-77.7,77.7-77.7h220.2c42.7,0,77.7,35,77.7,77.7V366.1z
		 M256,119.5c-75.1,0-136.5,61.4-136.5,136.5c0,75.1,61.4,136.5,136.5,136.5c75.1,0,136.5-61.4,136.5-136.5
		C392.5,180.9,331.1,119.5,256,119.5z M256,375.5c-65.7,0-119.5-53.8-119.5-119.5c0-65.7,53.8-119.5,119.5-119.5
		c65.7,0,119.5,53.8,119.5,119.5C375.5,321.7,321.7,375.5,256,375.5z M256,162.1c-52.1,0-93.9,41.8-93.9,93.9
		c0,52.1,41.8,93.9,93.9,93.9c52.1,0,93.9-41.8,93.9-93.9C349.9,203.9,308.1,162.1,256,162.1z M256,332.8
		c-42.7,0-76.8-34.1-76.8-76.8c0-42.7,34.1-76.8,76.8-76.8c42.7,0,76.8,34.1,76.8,76.8C332.8,298.7,298.7,332.8,256,332.8z
		 M392.5,93.9c-14.5,0-25.6,11.1-25.6,25.6c0,14.5,11.1,25.6,25.6,25.6c14.5,0,25.6-11.1,25.6-25.6C418.1,105,407,93.9,392.5,93.9z"
		/>
</g>
</svg>
