<?xml version="1.0" encoding="utf-8"?>
<!-- Generator: Adobe Illustrator 22.1.0, SVG Export Plug-In . SVG Version: 6.00 Build 0)  -->
<svg version="1.1" id="Capa_1" xmlns="http://www.w3.org/2000/svg" xmlns:xlink="http://www.w3.org/1999/xlink" x="0px" y="0px"
	 viewBox="0 0 512 512" style="enable-background:new 0 0 512 512;" xml:space="preserve">
<style type="text/css">
	.st0{fill:#FFFFFF;}
</style>
<path class="st0" d="M493.7,210.3l-59.6-52.9V61.9c0-5.2-4.2-9.4-9.4-9.4H320.8L272,7.2c-10.4-9.6-26.6-9.6-37,0l-48.9,45.3H82.2
	c-5.2,0-9.4,4.2-9.4,9.4v95.7L16,210.4c-1.9,1.8-3,4.3-3,6.9v285.3c0,5.2,4.2,9.4,9.4,9.4h465.1c5.2,0,9.4-4.2,9.4-9.4V217.3
	C496.9,214.6,495.7,212.1,493.7,210.3z M434.1,182.5L473,217L434.1,249V182.5z M247.7,21c3.3-3.1,8.3-3.1,11.6,0l34,31.5h-79.5
	L247.7,21z M91.6,71.3h323.8v193l-115.3,94.6L279.6,340c-14-12.9-35.2-12.9-49.2,0l-21.8,20.1L91.6,262.9V71.3z M72.9,183.2v64.1
	L36.5,217L72.9,183.2z M31.8,493.2V237.5L194.6,373l-13.4,12.4l-117,107.8H31.8z M91.8,493.2l102-94l49.2-45.3
	c6.8-6.3,17.1-6.3,23.9,0l151.2,139.4H91.8z M478.1,493.2L478.1,493.2h-32.3L314,371.7l164.1-134.6V493.2z"/>
</svg>
