<?xml version="1.0" encoding="utf-8"?>
<!-- Generator: Adobe Illustrator 22.1.0, SVG Export Plug-In . SVG Version: 6.00 Build 0)  -->
<svg version="1.1" id="Capa_1" xmlns="http://www.w3.org/2000/svg" xmlns:xlink="http://www.w3.org/1999/xlink" x="0px" y="0px"
	 viewBox="0 0 512 512" style="enable-background:new 0 0 512 512;" xml:space="preserve">
<style type="text/css">
	.st0{fill:#FFFFFF;}
</style>
<path class="st0" d="M512.2,86.1c0-0.2,0.1-0.4,0.1-0.6c0.1-0.7,0-1.3-0.1-2c0-0.2,0-0.3,0-0.5c-0.2-0.9-0.4-1.7-0.9-2.6
	c-0.1-0.1-0.2-0.3-0.2-0.4c0,0,0,0,0-0.1c0,0,0,0,0-0.1c-0.1-0.1-0.1-0.2-0.2-0.3c-0.5-0.8-1.2-1.5-1.9-2c-0.2-0.1-0.4-0.2-0.5-0.3
	c-0.6-0.4-1.3-0.8-2-1c-0.3-0.1-0.6-0.2-1-0.2c-0.6-0.1-1.2-0.2-1.9-0.2c-0.3,0-0.7,0-1,0.1c-0.2,0-0.4,0-0.7,0.1L6.8,181.6
	c-3.5,0.8-6.2,3.7-6.7,7.4c-0.5,3.7,1.3,7.3,4.5,9l141.9,77.3l24.9,142.5c0,0.1,0,0.2,0,0.3c-0.1,0.7-0.1,1.4,0,2.1
	c0,0.3,0.1,0.7,0.2,1c0.2,0.8,0.5,1.6,0.9,2.4c0.1,0.1,0.1,0.3,0.2,0.5c0,0,0.1,0.1,0.1,0.1c0.1,0.2,0.3,0.3,0.4,0.5
	c0.4,0.5,0.8,1,1.3,1.4c0.1,0.1,0.1,0.2,0.2,0.2c0.1,0.1,0.3,0.1,0.4,0.2c0.5,0.4,1.1,0.6,1.6,0.9c0.2,0.1,0.4,0.2,0.7,0.3
	c0.8,0.2,1.6,0.4,2.4,0.4c0,0,0,0,0,0l0,0l0,0c0,0,0.1,0,0.1,0c0.1,0,0.3,0,0.4,0c2.4,0,4.5-1.1,6.1-2.8l94.5-65l99,66.4
	c1.4,0.9,3,1.4,4.6,1.4c0.9,0,1.8-0.2,2.7-0.4c2.5-0.8,4.4-2.8,5.3-5.3L511.8,87.7c0.1-0.3,0.2-0.6,0.3-0.9c0-0.1,0-0.3,0.1-0.4
	C512.2,86.3,512.2,86.2,512.2,86.1z M413.4,142.3L208.8,297.6c-0.3,0.3-0.6,0.6-0.9,0.9c-0.1,0.1-0.2,0.2-0.3,0.3
	c-0.2,0.2-0.3,0.4-0.5,0.6c-0.2,0.2-0.3,0.4-0.4,0.7c-0.3,0.5-0.6,1.1-0.8,1.7c0,0.1-0.1,0.2-0.1,0.3c0,0,0,0.1-0.1,0.1l-23.5,78.7
	l-18.6-106.5L413.4,142.3z M195.4,397.8l23.3-79.3l36.2,24.3l10.4,6.9L230.1,374L195.4,397.8z M444,106.4L154.2,259.6L33.5,193.9
	L444,106.4z M380.1,405.8l-131.4-88.2l-19.9-13.4L486,109L380.1,405.8z"/>
</svg>
