<?xml version="1.0" encoding="utf-8"?>
<!-- Generator: Adobe Illustrator 22.1.0, SVG Export Plug-In . SVG Version: 6.00 Build 0)  -->
<svg version="1.1" id="Capa_1" xmlns="http://www.w3.org/2000/svg" xmlns:xlink="http://www.w3.org/1999/xlink" x="0px" y="0px"
	 viewBox="0 0 512 512" style="enable-background:new 0 0 512 512;" xml:space="preserve">
<style type="text/css">
	.st0{fill:#FFFFFF;}
</style>
<g>
	<path class="st0" d="M313.3,196.4c-2.7-2.4-5.6-4.7-8.6-6.7c-4.7-3.2-11-1.9-14.2,2.8c-3.2,4.7-1.9,11,2.8,14.2
		c2.2,1.5,4.4,3.2,6.4,5c2,1.7,4.4,2.6,6.8,2.6c2.8,0,5.6-1.2,7.6-3.4C317.9,206.7,317.5,200.2,313.3,196.4z M501.8,245.3h-15.1
		c-2.5-56.6-25.7-109.5-66.1-149.9C380.3,55,327.4,31.8,270.7,29.3V14.2c0-5.6-4.6-10.2-10.2-10.2c-5.6,0-10.2,4.6-10.2,10.2v15.1
		C193.6,31.8,140.7,55,100.4,95.4C60,135.7,36.8,188.6,34.3,245.3H19.2c-5.6,0-10.2,4.6-10.2,10.2c0,5.6,4.6,10.2,10.2,10.2h15.1
		c2.5,56.7,25.7,109.6,66.1,149.9c40.4,40.4,93.3,63.6,149.9,66.1v15.1c0,5.6,4.6,10.2,10.2,10.2c5.6,0,10.2-4.6,10.2-10.2v-15.1
		c56.6-2.5,109.6-25.7,149.9-66.1c40.4-40.4,63.6-93.3,66.1-149.9h15.1c5.6,0,10.2-4.6,10.2-10.2C512,249.9,507.4,245.3,501.8,245.3
		z M250.3,49.7v26.6c-90.8,5.1-163.8,78.1-168.9,168.9H54.7C59.9,139.8,144.8,54.9,250.3,49.7z M202.6,265.7h47.7v47.7
		C226,309.1,206.9,290,202.6,265.7z M250.3,334v80.1c-79.5-5.1-143.3-68.9-148.4-148.4h80.1C186.5,301.2,214.8,329.5,250.3,334z
		 M202.6,245.3c4.3-24.2,23.4-43.4,47.7-47.7v47.7H202.6z M181.9,245.3h-80.1c5.1-79.5,68.9-143.3,148.4-148.4v80.1
		C214.8,181.5,186.5,209.7,181.9,245.3z M250.3,461.3L250.3,461.3c-105.5-5.2-190.3-90.1-195.5-195.5h26.6
		c5.1,90.8,78.1,163.8,168.9,168.9V461.3z M270.7,49.7c105.5,5.2,190.3,90.1,195.5,195.5h-26.6c-5.1-90.8-78.1-163.8-168.9-168.9
		V49.7z M270.7,96.9c79.5,5.1,143.3,68.9,148.4,148.4h-80.1c-0.9-7-2.7-13.8-5.4-20.3c-2.2-5.2-8.2-7.7-13.4-5.5
		c-5.2,2.2-7.7,8.2-5.5,13.4c1.7,4,2.9,8.2,3.6,12.4h-47.7V96.9z M270.7,265.7h47.7c-4.3,24.2-23.4,43.4-47.7,47.7V265.7z
		 M270.7,334c35.5-4.6,63.7-32.8,68.3-68.3h80.1c-5.1,79.5-68.9,143.3-148.4,148.4V334z M270.7,461.3v-26.6
		c90.8-5.1,163.8-78.1,168.9-168.9h26.6C461.1,371.2,376.2,456.1,270.7,461.3z"/>
</g>
</svg>
