<?xml version="1.0" encoding="utf-8"?>
<!-- Generator: Adobe Illustrator 22.1.0, SVG Export Plug-In . SVG Version: 6.00 Build 0)  -->
<svg version="1.1" id="Capa_1" xmlns="http://www.w3.org/2000/svg" xmlns:xlink="http://www.w3.org/1999/xlink" x="0px" y="0px"
	 viewBox="0 0 512 512" style="enable-background:new 0 0 512 512;" xml:space="preserve">
<style type="text/css">
	.st0{fill:#FFFFFF;}
</style>
<g>
	<path class="st0" d="M451.7,240.8c-17.4-8.7-50.1-8.8-51.5-8.8c-4.1,0-7.5,3.4-7.5,7.5c0,4.1,3.4,7.5,7.5,7.5
		c8.4,0,32.9,1.3,44.8,7.2c1.1,0.5,2.2,0.8,3.3,0.8c2.8,0,5.4-1.5,6.7-4.2C456.9,247.2,455.4,242.7,451.7,240.8z M489.1,347.9
		l-31-8.9c-1.3-0.4-2.3-1.6-2.3-3v-10.4c2.5-1.8,4.9-3.7,7.2-5.9c10.9-10.6,16.9-24.8,16.9-40v-14.3l3-6c3.3-6.6,5-14,5-21.3v-38.7
		c0-4.2-3.4-7.5-7.5-7.5h-72.2c-26.2,0-47.6,21.4-47.6,47.7v0.4c0,6.1,1.4,12.3,4.2,17.7l3.8,7.7v12.3c0,19.5,9.6,36.9,24.1,47.4
		l0,10.9c0,1.7,0,2.4-6.2,4.1l-15.1,4.3l-43.7-15.9c0.2-2.1-0.5-4.2-2-5.8l-14-14.7v-24.7c1.5-1.2,2.9-2.5,4.3-3.8
		c17.6-16.6,27.7-39.9,27.7-64.1v-19.7c5.3-11.6,8-23.9,8-36.5V78.8c0-4.1-3.4-7.5-7.5-7.5H232c-39.5,0-71.7,32.2-71.7,71.8v16.1
		c0,12.7,2.7,24.9,8,36.5v17c0,28.1,12.5,53.4,32.1,70.1v25.3l-14,14.7c-1.5,1.6-2.2,3.7-2,5.8l-46.1,16.8c-3.3,1.2-6.5,2.9-9.3,4.9
		l-7.2-3.6c21.6-9.4,28.4-22.6,28.7-23.3c1.1-2.1,1.1-4.6,0-6.7c-5.4-10.8-6.1-30.7-6.6-46.7c-0.2-5.3-0.3-10.3-0.7-14.8
		c-2.6-36.1-29.9-63.3-63.6-63.3c-33.7,0-61.1,27.2-63.6,63.3c-0.3,4.5-0.5,9.5-0.7,14.8c-0.5,16-1.2,35.8-6.6,46.7
		c-1.1,2.1-1.1,4.6,0,6.7c0.3,0.7,7.1,13.9,28.8,23.3l-20.1,10.1C6.7,362,0,372.9,0,384.9v55.5c0,4.2,3.4,7.5,7.5,7.5
		c4.1,0,7.5-3.4,7.5-7.5v-55.5c0-6.3,3.5-12,9.2-14.8l25.1-12.6l8.7,8.3c6.1,5.8,13.9,8.7,21.7,8.7c7.8,0,15.6-2.9,21.7-8.7l8.7-8.3
		l8.2,4.1c-3.8,6.2-6,13.4-6,21v57.9c0,4.1,3.4,7.5,7.5,7.5s7.5-3.4,7.5-7.5v-57.9c0-10.3,6.5-19.6,16.2-23.2l48.7-17.7l20.3,30.5
		c2.6,3.9,6.7,6.4,11.4,6.9c0.5,0.1,1,0.1,1.5,0.1c4.1,0,8-1.6,11-4.6l12.4-12.4v78.3c0,4.2,3.4,7.5,7.5,7.5s7.5-3.4,7.5-7.5v-78.3
		l12.4,12.4c2.9,2.9,6.9,4.6,11,4.6c0.5,0,1,0,1.5-0.1c4.6-0.5,8.8-3,11.4-6.9l20.3-30.5l48.7,17.7c9.7,3.5,16.2,12.8,16.2,23.2
		v57.9c0,4.2,3.4,7.5,7.5,7.5c4.1,0,7.5-3.4,7.5-7.5v-57.9c0-10.5-4.1-20.3-11.1-27.5l1.9-0.5c1.9-0.5,4.4-1.3,7-2.5l19.1,19.2v69.2
		c0,4.2,3.4,7.5,7.5,7.5c4.1,0,7.5-3.4,7.5-7.5v-69.2l19-19.1c1,0.5,2.1,0.9,3.2,1.3l31,8.9c7.1,2,12,8.6,12,16v62.2
		c0,4.2,3.4,7.5,7.5,7.5c4.1,0,7.5-3.4,7.5-7.5v-62.2C512,364.2,502.6,351.7,489.1,347.9z M48.1,334.6c-14-5.1-21.1-11.8-24.1-15.5
		c2-5.4,3.4-11.5,4.3-18c4.1,9.9,11.1,18.4,19.8,24.5V334.6z M91.1,354.9c-6.4,6.1-16.4,6.1-22.8,0l-7-6.6c1.2-2.2,1.8-4.7,1.8-7.3
		v-8c5.2,1.6,10.8,2.5,16.6,2.5c5.8,0,11.3-0.9,16.6-2.5l0,8c0,2.6,0.6,5.1,1.8,7.3L91.1,354.9z M79.7,320.4
		c-22.4,0-40.6-18.3-40.6-40.7c0-4.2-3.4-7.5-7.5-7.5c-0.4,0-0.8,0-1.2,0.1c0-0.6,0-1.3,0.1-1.9c0.2-5.2,0.3-10.1,0.6-14.2
		c1-13.5,6.3-26,15.2-35c8.9-9.2,20.8-14.2,33.5-14.2c12.7,0,24.6,5.1,33.5,14.2c8.8,9.1,14.2,21.5,15.2,35
		c0.3,4.2,0.5,9.1,0.6,14.2c0,0.4,0,0.9,0,1.3c-8.2-12.6-20.8-21.9-37-27.1c-15-4.8-28-4.5-28.5-4.5c-2,0.1-3.8,0.9-5.2,2.3
		l-13.5,14.1c-2.9,3-2.8,7.7,0.2,10.6c3,2.9,7.7,2.8,10.6-0.2l11.3-11.7c9.7,0.5,40.9,4.1,53,30.9
		C116.7,305.8,99.8,320.4,79.7,320.4z M111.2,334.6l0-9c8.7-6,15.7-14.5,19.8-24.5c0.9,6.5,2.2,12.6,4.3,18
		C132.3,322.8,125.2,329.6,111.2,334.6z M183.4,212.7V194c0-1.1-0.3-2.3-0.7-3.3c-4.8-10-7.3-20.6-7.3-31.6v-16.1
		c0-31.3,25.4-56.8,56.7-56.8h104.8v72.9c0,10.9-2.4,21.6-7.3,31.6c-0.5,1-0.7,2.1-0.7,3.3v21.4c0,20.4-8.2,39.2-23,53.2
		c-1.9,1.7-3.8,3.4-5.8,4.9c0,0-0.1,0.1-0.1,0.1c-13.9,10.6-30.9,15.7-48.7,14.5C213.2,285.7,183.4,252.5,183.4,212.7z M225.6,363.9
		c-0.1,0.1-0.2,0.2-0.4,0.2c-0.2,0-0.3-0.2-0.4-0.2l-23.3-35.1l7.5-7.9l35.4,24.2L225.6,363.9z M256.1,334.9l-40.6-27.8v-14
		c10.5,5.7,22.3,9.3,34.8,10.1c2,0.1,3.9,0.2,5.9,0.2c14.3,0,28.1-3.4,40.5-10v13.7L256.1,334.9z M287.4,363.8
		c0,0.1-0.1,0.2-0.4,0.2c-0.2,0-0.4-0.1-0.4-0.2l-18.8-18.8l35.4-24.2l7.5,7.9L287.4,363.8z M424.3,357.5l-17-17.1
		c0.3-1.4,0.5-2.8,0.5-4.5l0-3.2c4.7,1.6,9.7,2.5,14.9,2.6c0.6,0,1.2,0,1.7,0c5.7,0,11.2-0.9,16.5-2.5v3c0,1.5,0.2,3,0.5,4.4
		L424.3,357.5z M452.6,308.9c-7.9,7.7-18.5,11.8-29.5,11.5c-21.7-0.7-39.4-19.8-39.4-42.7v-14.1c0-1.2-0.3-2.3-0.8-3.4l-4.6-9.3
		c-1.7-3.4-2.6-7.2-2.6-11v-0.4c0-18,14.6-32.7,32.6-32.7h64.7v31.2c0,5-1.2,10.1-3.4,14.6l-3.8,7.6c-0.5,1-0.8,2.2-0.8,3.4v16.1
		C464.9,290.8,460.5,301.2,452.6,308.9z M472.4,384.7c-4.1,0-7.5,3.4-7.5,7.5v48.2c0,4.2,3.4,7.5,7.5,7.5c4.1,0,7.5-3.4,7.5-7.5
		v-48.2C479.9,388.1,476.6,384.7,472.4,384.7z M39.6,394.7c-4.1,0-7.5,3.4-7.5,7.5v38.3c0,4.2,3.4,7.5,7.5,7.5
		c4.1,0,7.5-3.4,7.5-7.5v-38.3C47.1,398,43.7,394.7,39.6,394.7z M207.5,157.9c0-0.3,0.2-0.5,0.4-0.5c9.7-1.5,28.8-3.7,48.7-2.4
		c23.4,1.6,40.3,7.4,50.3,17.5c2.9,2.9,7.7,2.9,10.6,0c2.9-2.9,2.9-7.7,0-10.6c-28.4-28.4-87.7-23-111.9-19.3
		c-7.6,1.2-13.2,7.6-13.2,15.4v17.3c0,4.2,3.4,7.5,7.5,7.5c4.1,0,7.5-3.4,7.5-7.5V157.9z M167.9,400.8c-4.1,0-7.5,3.4-7.5,7.5v32.2
		c0,4.2,3.4,7.5,7.5,7.5c4.1,0,7.5-3.4,7.5-7.5v-32.2C175.4,404.2,172,400.8,167.9,400.8z M344.3,400.8c-4.1,0-7.5,3.4-7.5,7.5v32.2
		c0,4.2,3.4,7.5,7.5,7.5c4.1,0,7.5-3.4,7.5-7.5v-32.2C351.8,404.2,348.5,400.8,344.3,400.8z"/>
</g>
</svg>
